<svg width="64" height="64" viewBox="0 0 64 64" fill="none" xmlns="http://www.w3.org/2000/svg">
<rect x="1" y="1" width="62" height="62" rx="3" stroke="#F4F3F1" stroke-opacity="0.94" stroke-width="2"/>
<path d="M17.4966 26.822V20.152C16.3173 18.2187 15.2443 16.3337 14.2776 14.497C13.3303 12.6604 12.499 10.785 11.7836 8.87102H14.4516C15.0123 10.495 15.6503 12.0514 16.3656 13.54C17.1003 15.0094 17.8833 16.527 18.7146 18.093C19.604 16.4497 20.387 14.8934 21.0636 13.424C21.7596 11.9354 22.388 10.4177 22.9486 8.87102H25.5586C24.824 10.7657 23.983 12.612 23.0356 14.41C22.0883 16.208 21.0346 18.1027 19.8746 20.094V26.822H17.4966ZM43.3066 26.822V20.152C42.1273 18.2187 41.0543 16.3337 40.0876 14.497C39.1403 12.6604 38.309 10.785 37.5936 8.87102H40.2616C40.8223 10.495 41.4603 12.0514 42.1756 13.54C42.9103 15.0094 43.6933 16.527 44.5246 18.093C45.414 16.4497 46.197 14.8934 46.8736 13.424C47.5696 11.9354 48.198 10.4177 48.7586 8.87102H51.3686C50.634 10.7657 49.793 12.612 48.8456 14.41C47.8983 16.208 46.8446 18.1027 45.6846 20.094V26.822H43.3066ZM22.2236 45.977H24.6016V54.387C24.2343 54.5224 23.6446 54.6867 22.8326 54.88C22.0206 55.0927 21.0636 55.199 19.9616 55.199C18.879 55.199 17.893 54.996 17.0036 54.59C16.1143 54.1647 15.3506 53.5557 14.7126 52.763C14.094 51.9704 13.6106 50.994 13.2626 49.834C12.9146 48.6547 12.7406 47.3207 12.7406 45.832C12.7406 44.324 12.934 42.99 13.3206 41.83C13.7073 40.67 14.2293 39.6937 14.8866 38.901C15.5633 38.1084 16.3463 37.509 17.2356 37.103C18.125 36.6777 19.082 36.465 20.1066 36.465C20.764 36.465 21.344 36.5134 21.8466 36.61C22.3493 36.7067 22.7746 36.8227 23.1226 36.958C23.49 37.0934 23.7896 37.2384 24.0216 37.393C24.2536 37.5284 24.4276 37.6347 24.5436 37.712L23.7606 39.713C23.316 39.365 22.7843 39.0847 22.1656 38.872C21.5663 38.64 20.9283 38.524 20.2516 38.524C19.517 38.524 18.8306 38.698 18.1926 39.046C17.574 39.394 17.0423 39.887 16.5976 40.525C16.153 41.163 15.805 41.9364 15.5536 42.845C15.3023 43.7344 15.1766 44.73 15.1766 45.832C15.1766 46.9147 15.283 47.9007 15.4956 48.79C15.7276 49.6794 16.0563 50.443 16.4816 51.081C16.907 51.719 17.429 52.2217 18.0476 52.589C18.6856 52.937 19.4106 53.111 20.2226 53.111C20.7833 53.111 21.2183 53.0724 21.5276 52.995C21.837 52.9177 22.069 52.8404 22.2236 52.763V45.977ZM44.0026 53.14C45.2206 53.14 46.1486 52.908 46.7866 52.444C47.4246 51.98 47.7436 51.284 47.7436 50.356C47.7436 49.7954 47.6276 49.3217 47.3956 48.935C47.1636 48.529 46.8543 48.181 46.4676 47.891C46.081 47.5817 45.646 47.3207 45.1626 47.108C44.6793 46.876 44.1863 46.6634 43.6836 46.47C43.1036 46.238 42.543 45.977 42.0016 45.687C41.4796 45.397 41.006 45.0587 40.5806 44.672C40.1746 44.2854 39.846 43.831 39.5946 43.309C39.3626 42.787 39.2466 42.1684 39.2466 41.453C39.2466 39.887 39.7396 38.669 40.7256 37.799C41.7116 36.9097 43.0843 36.465 44.8436 36.465C45.327 36.465 45.8006 36.5037 46.2646 36.581C46.748 36.639 47.1926 36.7164 47.5986 36.813C48.0046 36.9097 48.3623 37.0257 48.6716 37.161C49.0003 37.2964 49.2613 37.4317 49.4546 37.567L48.7006 39.568C48.314 39.336 47.7823 39.104 47.1056 38.872C46.429 38.64 45.675 38.524 44.8436 38.524C43.9736 38.524 43.2196 38.7464 42.5816 39.191C41.9436 39.6164 41.6246 40.264 41.6246 41.134C41.6246 41.6367 41.7116 42.062 41.8856 42.41C42.079 42.758 42.3303 43.0674 42.6396 43.338C42.9683 43.5894 43.3453 43.8214 43.7706 44.034C44.196 44.2467 44.66 44.4594 45.1626 44.672C45.8973 44.9814 46.5643 45.2907 47.1636 45.6C47.7823 45.9094 48.3043 46.2767 48.7296 46.702C49.1743 47.1274 49.5126 47.63 49.7446 48.21C49.996 48.79 50.1216 49.4957 50.1216 50.327C50.1216 51.893 49.59 53.1014 48.5266 53.952C47.4826 54.7834 45.9746 55.199 44.0026 55.199C43.3646 55.199 42.7653 55.1507 42.2046 55.054C41.644 54.9767 41.1413 54.8704 40.6966 54.735C40.2713 54.5997 39.8943 54.4644 39.5656 54.329C39.237 54.1937 38.9856 54.068 38.8116 53.952L39.5366 51.98C39.9233 52.1927 40.4936 52.444 41.2476 52.734C42.0016 53.0047 42.92 53.14 44.0026 53.14Z" fill="#F4F3F1" fill-opacity="0.94"/>
</svg>
